<?xml version="1.0" standalone="no"?>
<!DOCTYPE svg PUBLIC "-//W3C//DTD SVG 20010904//EN"
 "http://www.w3.org/TR/2001/REC-SVG-20010904/DTD/svg10.dtd">
<svg version="1.0" xmlns="http://www.w3.org/2000/svg"
 width="340.000000pt" height="341.000000pt" viewBox="0 0 340.000000 341.000000"
 preserveAspectRatio="xMidYMid meet">

<g transform="translate(0.000000,341.000000) scale(0.100000,-0.100000)"
fill="#000000" stroke="none">
<path d="M945 3324 c-124 -18 -232 -73 -334 -174 -117 -114 -188 -268 -182
-394 5 -95 16 -103 17 -13 1 62 8 97 27 144 57 139 163 255 294 320 76 38 78
38 198 38 115 0 123 -1 187 -33 186 -91 323 -288 394 -566 30 -118 45 -326 25
-350 -9 -11 -10 -20 -2 -35 11 -21 9 -58 -15 -211 -23 -145 -43 -222 -135
-521 -22 -69 -39 -132 -39 -140 1 -14 9 2 60 121 15 36 60 139 100 230 118
273 159 433 167 660 4 119 1 163 -15 245 -26 131 -71 245 -134 342 -105 161
-289 307 -413 328 -50 8 -168 13 -200 9z"/>
<path d="M2225 3134 c-46 -24 -71 -46 -134 -119 -36 -43 -76 -121 -120 -238
-49 -129 -55 -178 -12 -100 37 67 91 140 128 174 91 84 243 269 243 296 0 21
-51 15 -105 -13z"/>
<path d="M1028 2916 c-70 -16 -108 -31 -177 -69 l-54 -30 37 -19 c21 -11 51
-40 69 -66 55 -81 138 -157 211 -192 38 -18 74 -33 82 -34 7 -1 17 -5 20 -9 4
-4 16 -7 26 -7 34 0 161 -66 228 -118 35 -28 66 -49 69 -47 2 3 -16 39 -40 81
-57 99 -142 186 -256 263 -51 34 -93 63 -93 65 0 8 66 -11 100 -29 58 -30 152
-95 192 -133 21 -20 40 -33 43 -31 2 3 -7 48 -20 100 -28 105 -79 191 -132
222 -92 53 -210 74 -305 53z"/>
<path d="M2195 2494 c-43 -7 -133 -51 -178 -86 -72 -57 -159 -198 -208 -336
-11 -31 -24 -64 -29 -73 -5 -9 -12 -34 -16 -55 l-7 -39 54 52 c30 29 80 72
112 96 66 49 276 157 307 157 11 0 20 5 20 10 0 6 11 10 25 10 14 0 25 4 25 8
0 10 89 32 128 32 l25 0 -23 -25 c-12 -13 -25 -23 -29 -22 -13 4 -252 -123
-303 -161 -98 -72 -260 -234 -247 -247 2 -2 29 11 59 29 67 39 216 98 325 127
44 11 94 24 110 29 51 13 96 40 193 114 129 98 177 124 234 125 26 1 49 5 52
10 14 23 -202 175 -289 205 -22 7 -56 19 -75 25 -37 13 -214 23 -265 15z"/>
<path d="M1194 2068 c3 -51 13 -133 22 -183 9 -49 17 -108 19 -130 2 -22 8
-56 12 -75 5 -19 8 -115 7 -212 0 -98 3 -175 7 -172 5 3 9 14 9 25 0 10 4 27
9 37 13 24 57 220 72 320 25 177 -7 335 -88 430 -67 78 -77 72 -69 -40z"/>
<path d="M2064 1651 c-60 -36 -93 -177 -60 -254 7 -18 32 -49 55 -68 35 -29
42 -42 50 -89 5 -30 9 -45 10 -33 0 12 9 39 18 59 17 35 17 36 -2 50 -21 16
-23 55 -10 277 4 87 -3 94 -61 58z"/>
<path d="M1557 1588 c-36 -57 -42 -100 -42 -328 0 -139 5 -258 13 -310 11 -71
11 -106 0 -210 -12 -112 -15 -221 -10 -362 2 -55 24 -74 66 -59 35 14 40 66
25 242 -8 89 -13 315 -13 593 -1 463 -4 491 -39 434z"/>
<path d="M1363 1355 c-3 -9 -3 -18 -1 -21 3 -3 8 4 11 16 6 23 -1 27 -10 5z"/>
<path d="M1345 1299 c-4 -6 -5 -12 -2 -15 2 -3 7 2 10 11 7 17 1 20 -8 4z"/>
<path d="M1780 1280 c0 -13 16 -52 36 -88 l36 -64 -5 -227 c-3 -166 -10 -262
-26 -361 -27 -166 -25 -200 11 -218 36 -17 75 -1 84 34 4 15 1 68 -5 118 -7
50 -14 115 -16 144 -2 29 -9 79 -15 109 -5 31 -10 130 -10 219 0 168 6 201 48
254 20 26 25 42 23 71 -1 13 -14 15 -68 14 -38 -1 -74 2 -80 8 -10 7 -13 3
-13 -13z"/>
<path d="M1235 960 c-3 -5 -1 -10 4 -10 6 0 11 5 11 10 0 6 -2 10 -4 10 -3 0
-8 -4 -11 -10z"/>
<path d="M1200 809 c0 -5 5 -7 10 -4 6 3 10 8 10 11 0 2 -4 4 -10 4 -5 0 -10
-5 -10 -11z"/>
<path d="M2148 647 c-13 -30 -10 -223 2 -211 7 7 10 54 8 120 -2 61 -6 101
-10 91z"/>
<path d="M1194 604 c11 -45 28 -55 24 -15 -2 19 -9 37 -17 39 -11 4 -12 -2 -7
-24z"/>
<path d="M1217 510 c3 -11 7 -20 9 -20 2 0 4 9 4 20 0 11 -4 20 -9 20 -5 0 -7
-9 -4 -20z"/>
</g>
</svg>
